<mxfile host="app.diagrams.net" modified="2024-04-15T08:35:41.803Z" agent="Mozilla/5.0 (Macintosh; Intel Mac OS X 10_15_7) AppleWebKit/537.36 (KHTML, like Gecko) Chrome/123.0.0.0 Safari/537.36" etag="Jk5tMymciF-e7MsjR4uq" version="24.2.5" type="github">
  <diagram id="C5RBs43oDa-KdzZeNtuy" name="Page-1">
    <mxGraphModel dx="1234" dy="1121" grid="1" gridSize="10" guides="1" tooltips="1" connect="1" arrows="1" fold="1" page="1" pageScale="1" pageWidth="827" pageHeight="1169" math="0" shadow="0">
      <root>
        <mxCell id="WIyWlLk6GJQsqaUBKTNV-0" />
        <mxCell id="WIyWlLk6GJQsqaUBKTNV-1" parent="WIyWlLk6GJQsqaUBKTNV-0" />
        <mxCell id="x4rbwJY37VZB9UrwRD4L-18" value="ServiceNow" style="rounded=0;whiteSpace=wrap;html=1;fillColor=#d5e8d4;strokeColor=#82b366;" vertex="1" parent="WIyWlLk6GJQsqaUBKTNV-1">
          <mxGeometry x="256" y="160" width="120" height="50" as="geometry" />
        </mxCell>
        <mxCell id="x4rbwJY37VZB9UrwRD4L-19" value="모바일" style="rounded=0;whiteSpace=wrap;html=1;fillColor=#f8cecc;strokeColor=#b85450;" vertex="1" parent="WIyWlLk6GJQsqaUBKTNV-1">
          <mxGeometry x="42" y="160" width="120" height="50" as="geometry" />
        </mxCell>
        <mxCell id="x4rbwJY37VZB9UrwRD4L-24" value="sc_task" style="ellipse;whiteSpace=wrap;html=1;" vertex="1" parent="WIyWlLk6GJQsqaUBKTNV-1">
          <mxGeometry x="462" y="160" width="120" height="50" as="geometry" />
        </mxCell>
        <mxCell id="x4rbwJY37VZB9UrwRD4L-25" value="alm_hardware" style="ellipse;whiteSpace=wrap;html=1;" vertex="1" parent="WIyWlLk6GJQsqaUBKTNV-1">
          <mxGeometry x="756" y="160" width="120" height="50" as="geometry" />
        </mxCell>
        <mxCell id="x4rbwJY37VZB9UrwRD4L-31" value="" style="endArrow=none;dashed=1;html=1;dashPattern=1 3;strokeWidth=2;rounded=0;entryX=0.5;entryY=1;entryDx=0;entryDy=0;fillColor=#f8cecc;strokeColor=#b85450;" edge="1" parent="WIyWlLk6GJQsqaUBKTNV-1" source="x4rbwJY37VZB9UrwRD4L-42" target="x4rbwJY37VZB9UrwRD4L-19">
          <mxGeometry width="50" height="50" relative="1" as="geometry">
            <mxPoint x="102" y="1122" as="sourcePoint" />
            <mxPoint x="540" y="350" as="targetPoint" />
          </mxGeometry>
        </mxCell>
        <mxCell id="x4rbwJY37VZB9UrwRD4L-32" value="" style="endArrow=none;dashed=1;html=1;dashPattern=1 3;strokeWidth=2;rounded=0;entryX=0.5;entryY=1;entryDx=0;entryDy=0;fillColor=#d5e8d4;strokeColor=#82b366;" edge="1" parent="WIyWlLk6GJQsqaUBKTNV-1" source="x4rbwJY37VZB9UrwRD4L-47">
          <mxGeometry width="50" height="50" relative="1" as="geometry">
            <mxPoint x="320" y="1120" as="sourcePoint" />
            <mxPoint x="320" y="210" as="targetPoint" />
          </mxGeometry>
        </mxCell>
        <mxCell id="x4rbwJY37VZB9UrwRD4L-33" value="" style="endArrow=none;dashed=1;html=1;dashPattern=1 3;strokeWidth=2;rounded=0;entryX=0.5;entryY=1;entryDx=0;entryDy=0;fillColor=#f5f5f5;strokeColor=#666666;" edge="1" parent="WIyWlLk6GJQsqaUBKTNV-1">
          <mxGeometry width="50" height="50" relative="1" as="geometry">
            <mxPoint x="522" y="1120" as="sourcePoint" />
            <mxPoint x="521.5" y="210" as="targetPoint" />
          </mxGeometry>
        </mxCell>
        <mxCell id="x4rbwJY37VZB9UrwRD4L-34" value="" style="endArrow=none;dashed=1;html=1;dashPattern=1 3;strokeWidth=2;rounded=0;entryX=0.5;entryY=1;entryDx=0;entryDy=0;fillColor=#f5f5f5;strokeColor=#666666;" edge="1" parent="WIyWlLk6GJQsqaUBKTNV-1">
          <mxGeometry width="50" height="50" relative="1" as="geometry">
            <mxPoint x="817" y="1120" as="sourcePoint" />
            <mxPoint x="817" y="210" as="targetPoint" />
          </mxGeometry>
        </mxCell>
        <mxCell id="x4rbwJY37VZB9UrwRD4L-44" value="" style="endArrow=none;dashed=1;html=1;dashPattern=1 3;strokeWidth=2;rounded=0;entryX=0.5;entryY=1;entryDx=0;entryDy=0;fillColor=#f8cecc;strokeColor=#b85450;" edge="1" parent="WIyWlLk6GJQsqaUBKTNV-1" target="x4rbwJY37VZB9UrwRD4L-41">
          <mxGeometry width="50" height="50" relative="1" as="geometry">
            <mxPoint x="102" y="1122" as="sourcePoint" />
            <mxPoint x="102" y="210" as="targetPoint" />
          </mxGeometry>
        </mxCell>
        <mxCell id="x4rbwJY37VZB9UrwRD4L-41" value="" style="rounded=0;whiteSpace=wrap;html=1;fillColor=#f8cecc;strokeColor=#b85450;" vertex="1" parent="WIyWlLk6GJQsqaUBKTNV-1">
          <mxGeometry x="93" y="280" width="18" height="150" as="geometry" />
        </mxCell>
        <mxCell id="x4rbwJY37VZB9UrwRD4L-45" value="" style="endArrow=none;dashed=1;html=1;dashPattern=1 3;strokeWidth=2;rounded=0;entryX=0.5;entryY=1;entryDx=0;entryDy=0;fillColor=#f8cecc;strokeColor=#b85450;" edge="1" parent="WIyWlLk6GJQsqaUBKTNV-1" source="x4rbwJY37VZB9UrwRD4L-41" target="x4rbwJY37VZB9UrwRD4L-42">
          <mxGeometry width="50" height="50" relative="1" as="geometry">
            <mxPoint x="102" y="280" as="sourcePoint" />
            <mxPoint x="102" y="210" as="targetPoint" />
          </mxGeometry>
        </mxCell>
        <UserObject label="RITM 조회" placeholders="1" name="Variable" id="x4rbwJY37VZB9UrwRD4L-42">
          <mxCell style="text;html=1;strokeColor=none;fillColor=none;align=center;verticalAlign=middle;whiteSpace=wrap;overflow=hidden;" vertex="1" parent="WIyWlLk6GJQsqaUBKTNV-1">
            <mxGeometry x="62" y="260" width="80" height="20" as="geometry" />
          </mxCell>
        </UserObject>
        <mxCell id="x4rbwJY37VZB9UrwRD4L-49" value="" style="endArrow=none;dashed=1;html=1;dashPattern=1 3;strokeWidth=2;rounded=0;entryX=0.5;entryY=1;entryDx=0;entryDy=0;fillColor=#d5e8d4;strokeColor=#82b366;" edge="1" parent="WIyWlLk6GJQsqaUBKTNV-1" target="x4rbwJY37VZB9UrwRD4L-47">
          <mxGeometry width="50" height="50" relative="1" as="geometry">
            <mxPoint x="320" y="1120" as="sourcePoint" />
            <mxPoint x="320" y="210" as="targetPoint" />
          </mxGeometry>
        </mxCell>
        <mxCell id="x4rbwJY37VZB9UrwRD4L-47" value="" style="rounded=0;whiteSpace=wrap;html=1;fillColor=#d5e8d4;strokeColor=#82b366;" vertex="1" parent="WIyWlLk6GJQsqaUBKTNV-1">
          <mxGeometry x="310" y="280" width="18" height="60" as="geometry" />
        </mxCell>
        <mxCell id="x4rbwJY37VZB9UrwRD4L-50" value="" style="endArrow=classic;html=1;rounded=0;entryX=0;entryY=0.5;entryDx=0;entryDy=0;exitX=1.056;exitY=0.2;exitDx=0;exitDy=0;exitPerimeter=0;" edge="1" parent="WIyWlLk6GJQsqaUBKTNV-1" source="x4rbwJY37VZB9UrwRD4L-41" target="x4rbwJY37VZB9UrwRD4L-47">
          <mxGeometry width="50" height="50" relative="1" as="geometry">
            <mxPoint x="111" y="300" as="sourcePoint" />
            <mxPoint x="161" y="250" as="targetPoint" />
          </mxGeometry>
        </mxCell>
        <mxCell id="x4rbwJY37VZB9UrwRD4L-51" value="u_rfid_dashbaord" style="ellipse;whiteSpace=wrap;html=1;" vertex="1" parent="WIyWlLk6GJQsqaUBKTNV-1">
          <mxGeometry x="900" y="160" width="120" height="50" as="geometry" />
        </mxCell>
        <mxCell id="x4rbwJY37VZB9UrwRD4L-52" value="" style="endArrow=none;dashed=1;html=1;dashPattern=1 3;strokeWidth=2;rounded=0;entryX=0.5;entryY=1;entryDx=0;entryDy=0;fillColor=#f5f5f5;strokeColor=#666666;" edge="1" parent="WIyWlLk6GJQsqaUBKTNV-1">
          <mxGeometry width="50" height="50" relative="1" as="geometry">
            <mxPoint x="960" y="1120" as="sourcePoint" />
            <mxPoint x="959.5" y="210" as="targetPoint" />
          </mxGeometry>
        </mxCell>
        <UserObject label="/task" placeholders="1" name="Variable" id="x4rbwJY37VZB9UrwRD4L-53">
          <mxCell style="text;html=1;strokeColor=none;fillColor=none;align=center;verticalAlign=middle;whiteSpace=wrap;overflow=hidden;" vertex="1" parent="WIyWlLk6GJQsqaUBKTNV-1">
            <mxGeometry x="162" y="290" width="80" height="20" as="geometry" />
          </mxCell>
        </UserObject>
        <mxCell id="x4rbwJY37VZB9UrwRD4L-55" value="u_due_dilligence_items" style="ellipse;whiteSpace=wrap;html=1;" vertex="1" parent="WIyWlLk6GJQsqaUBKTNV-1">
          <mxGeometry x="620" y="160" width="120" height="50" as="geometry" />
        </mxCell>
        <mxCell id="x4rbwJY37VZB9UrwRD4L-56" value="" style="endArrow=none;dashed=1;html=1;dashPattern=1 3;strokeWidth=2;rounded=0;entryX=0.5;entryY=1;entryDx=0;entryDy=0;fillColor=#f5f5f5;strokeColor=#666666;" edge="1" parent="WIyWlLk6GJQsqaUBKTNV-1">
          <mxGeometry width="50" height="50" relative="1" as="geometry">
            <mxPoint x="681" y="1120" as="sourcePoint" />
            <mxPoint x="681" y="210" as="targetPoint" />
          </mxGeometry>
        </mxCell>
      </root>
    </mxGraphModel>
  </diagram>
</mxfile>
